<svg width="371" height="198" viewBox="0 0 371 198" fill="none" xmlns="http://www.w3.org/2000/svg">
<path d="M58.6363 182.426C38.9688 165.036 29.1772 137.875 35.5828 83.4676C44.506 7.67625 126.283 0.315305 132.573 83.4676C137.426 147.621 114.054 171.327 87.5959 185.193C78.2066 190.114 66.5779 189.448 58.6363 182.426Z" fill="#FFEBD9"/>
<path d="M81.2492 98.7711C56.4088 125.002 54.92 133.297 77.4599 138.386M108.021 99.1543V101.337M51.75 99.1543V101.337M35.5828 83.4676C29.1772 137.875 38.9688 165.036 58.6363 182.426C66.5779 189.448 78.2066 190.114 87.5959 185.193C114.054 171.327 137.426 147.621 132.573 83.4676C126.283 0.315305 44.506 7.67625 35.5828 83.4676Z" stroke="black" strokeWidth="9.88191" strokeLinecap="round" strokeLinejoin="round"/>
<path d="M127.245 65.9221C116.9 45.2679 53.9156 46.5523 42.5718 67.4786C41.4252 69.5937 37.8562 70.6179 36.4666 68.6538C21.3171 47.2408 25.6561 31.9066 35.8298 12.0003C37.1528 9.41179 40.405 8.51123 42.9459 9.92349C64.8741 22.1118 72.6536 22.242 83.2922 16.6263C102.448 6.51495 127.965 12.3381 137.861 31.6058C143.384 42.3602 144.618 53.0358 132.934 67.2971C131.472 69.0817 128.279 67.9849 127.245 65.9221Z" fill="#F49033" stroke="#F49033" strokeWidth="12.8303"/>
<path d="M154.176 107.909C169.919 90.0654 146.323 79.505 135.827 98.0216C132.536 108.029 132.116 113.952 134.024 125.105C139.734 135.86 171.06 134.195 154.17 115.252C152.325 113.184 152.343 109.987 154.176 107.909Z" fill="#FFEBD9" stroke="black" strokeWidth="9.88191" strokeLinecap="round" strokeLinejoin="round"/>
<path d="M176.997 133.696C175.208 133.696 173.559 133.347 172.05 132.648C170.54 131.949 169.338 130.957 168.444 129.671C167.549 128.385 167.102 126.903 167.102 125.226C167.102 123.353 167.451 121.606 168.15 119.985C168.849 118.336 169.869 117.022 171.211 116.044C172.581 115.037 174.174 114.534 175.991 114.534C177.892 114.534 179.331 115.149 180.31 116.379C181.288 117.581 181.749 119.105 181.693 120.949C181.693 122.599 181.036 123.857 179.723 124.723C178.437 125.59 176.788 126.023 174.775 126.023C174.468 126.023 174.006 125.995 173.391 125.939C172.385 125.827 171.672 125.674 171.253 125.478C170.834 125.282 170.624 124.891 170.624 124.304C170.624 124.108 170.68 123.968 170.792 123.885C170.904 123.773 171.127 123.717 171.463 123.717C171.826 123.717 172.469 123.801 173.391 123.968C174.286 124.136 175.082 124.22 175.781 124.22C178.353 124.22 179.639 123.102 179.639 120.866C179.639 119.524 179.387 118.462 178.884 117.679C178.409 116.896 177.556 116.505 176.326 116.505C174.985 116.505 173.783 116.868 172.72 117.595C171.658 118.294 170.834 119.216 170.247 120.362C169.688 121.509 169.408 122.725 169.408 124.01C169.408 126.219 170.023 128.036 171.253 129.461C172.483 130.859 174.384 131.558 176.955 131.558C177.263 131.558 177.78 131.53 178.507 131.474C178.814 131.446 179.192 131.362 179.639 131.222C180.086 131.082 180.408 130.985 180.603 130.929C181.805 130.509 182.686 130.3 183.245 130.3C183.664 130.3 183.986 130.412 184.209 130.635C183.51 131.697 182.462 132.48 181.064 132.983C179.695 133.458 178.339 133.696 176.997 133.696Z" fill="black"/>
<path d="M189.88 133.864C189.488 133.976 189.265 134.031 189.209 134.031C188.985 134.031 188.748 133.92 188.496 133.696C187.574 132.326 186.903 129.936 186.483 126.526C186.092 123.116 185.896 120.181 185.896 117.721C185.896 117.33 186.176 117.134 186.735 117.134C187.574 117.134 187.993 117.595 187.993 118.518C187.993 118.769 187.979 118.979 187.951 119.147C188.203 118.56 188.678 117.959 189.377 117.344C190.075 116.729 190.886 116.211 191.809 115.792C192.731 115.373 193.667 115.163 194.618 115.163C197.609 115.163 199.789 116.491 201.159 119.147C202.528 121.774 203.213 125.045 203.213 128.958C203.213 130.3 203.074 131.376 202.794 132.187C202.514 132.969 202.137 133.361 201.662 133.361C201.159 133.361 200.907 133.207 200.907 132.899C201.103 131.418 201.201 129.964 201.201 128.539C201.201 124.933 200.572 122.207 199.314 120.362C198.056 118.49 196.393 117.553 194.324 117.553C193.318 117.553 192.34 117.805 191.389 118.308C190.467 118.811 189.712 119.51 189.125 120.404C188.566 121.299 188.286 122.319 188.286 123.465C188.286 124.751 188.356 125.869 188.496 126.82C188.636 127.77 188.859 128.916 189.167 130.258C189.502 131.572 189.74 132.774 189.88 133.864Z" fill="black"/>
<path d="M240.216 98.8191C209.07 107.946 217.874 132.928 240.216 131.168" stroke="black" strokeWidth="9.88191" strokeLinecap="round" strokeLinejoin="round"/>
<path d="M256.159 133.738C254.51 133.738 253.015 133.375 251.673 132.648C250.359 131.893 249.325 130.859 248.57 129.545C247.843 128.203 247.48 126.68 247.48 124.975C247.48 122.179 248.5 120.097 250.541 118.727C252.609 117.358 255.139 116.673 258.13 116.673C259.5 116.673 260.772 117.008 261.946 117.679C263.148 118.35 264.112 119.314 264.839 120.572C265.565 121.83 265.929 123.284 265.929 124.933C265.929 126.722 265.468 128.287 264.545 129.629C263.623 130.943 262.407 131.963 260.897 132.69C259.416 133.389 257.836 133.738 256.159 133.738ZM255.698 131.348C258.298 131.348 260.268 130.761 261.61 129.587C262.952 128.413 263.623 126.694 263.623 124.43C263.623 122.892 263.092 121.564 262.029 120.446C260.995 119.328 259.542 118.769 257.669 118.769C256.411 118.769 255.139 119.007 253.853 119.482C252.567 119.957 251.505 120.67 250.667 121.62C249.828 122.571 249.409 123.717 249.409 125.059C249.409 126.177 249.688 127.225 250.247 128.203C250.806 129.154 251.561 129.922 252.511 130.509C253.49 131.068 254.552 131.348 255.698 131.348Z" fill="black"/>
<path d="M277.943 133.738C276.294 133.738 274.798 133.375 273.456 132.648C272.143 131.893 271.108 130.859 270.354 129.545C269.627 128.203 269.264 126.68 269.264 124.975C269.264 122.179 270.284 120.097 272.324 118.727C274.393 117.358 276.923 116.673 279.914 116.673C281.283 116.673 282.555 117.008 283.729 117.679C284.931 118.35 285.896 119.314 286.622 120.572C287.349 121.83 287.712 123.284 287.712 124.933C287.712 126.722 287.251 128.287 286.329 129.629C285.406 130.943 284.19 131.963 282.681 132.69C281.199 133.389 279.62 133.738 277.943 133.738ZM277.482 131.348C280.081 131.348 282.052 130.761 283.394 129.587C284.735 128.413 285.406 126.694 285.406 124.43C285.406 122.892 284.875 121.564 283.813 120.446C282.779 119.328 281.325 118.769 279.452 118.769C278.195 118.769 276.923 119.007 275.637 119.482C274.351 119.957 273.289 120.67 272.45 121.62C271.612 122.571 271.192 123.717 271.192 125.059C271.192 126.177 271.472 127.225 272.031 128.203C272.59 129.154 273.345 129.922 274.295 130.509C275.273 131.068 276.336 131.348 277.482 131.348Z" fill="black"/>
<path d="M295.995 148.623C295.436 148.623 294.765 147.127 293.982 144.136C293.228 141.145 292.543 137.819 291.928 134.157C291.341 130.523 291.047 128.231 291.047 127.281C291.047 124.458 291.998 122.403 293.898 121.117C295.799 119.803 298.245 119.147 301.236 119.147C302.829 119.147 304.339 119.482 305.764 120.153C307.19 120.796 308.336 121.732 309.203 122.962C310.069 124.164 310.502 125.562 310.502 127.155C310.502 129.14 309.804 130.537 308.406 131.348C307.036 132.159 305.303 132.564 303.207 132.564C301.026 132.564 299.168 132.201 297.63 131.474C296.121 130.719 295.366 129.699 295.366 128.413L295.408 127.994C295.604 127.77 295.813 127.658 296.037 127.658C296.232 127.658 296.442 127.742 296.666 127.91C296.917 128.05 297.183 128.217 297.462 128.413C298.329 129.056 299.181 129.573 300.02 129.964C300.887 130.356 301.963 130.551 303.249 130.551C305.01 130.551 306.254 130.244 306.98 129.629C307.735 128.986 308.112 127.98 308.112 126.61C308.112 125.604 307.777 124.709 307.106 123.926C306.435 123.144 305.569 122.543 304.507 122.123C303.444 121.704 302.354 121.495 301.236 121.495C298.636 121.495 296.68 122.054 295.366 123.172C294.052 124.262 293.465 126.093 293.605 128.664C293.856 133.025 294.248 136.687 294.779 139.65C295.338 142.613 296.302 145.129 297.672 147.197L297.714 147.281C297.714 147.337 297.644 147.393 297.504 147.449C297.392 147.533 297.309 147.603 297.253 147.659C296.917 148.19 296.498 148.511 295.995 148.623Z" fill="black"/>
<path d="M323.75 133.696C321.961 133.696 320.312 133.347 318.802 132.648C317.293 131.949 316.091 130.957 315.196 129.671C314.302 128.385 313.854 126.903 313.854 125.226C313.854 123.353 314.204 121.606 314.903 119.985C315.602 118.336 316.622 117.022 317.964 116.044C319.333 115.037 320.927 114.534 322.744 114.534C324.644 114.534 326.084 115.149 327.062 116.379C328.041 117.581 328.502 119.105 328.446 120.949C328.446 122.599 327.789 123.857 326.475 124.723C325.189 125.59 323.54 126.023 321.528 126.023C321.22 126.023 320.759 125.995 320.144 125.939C319.138 125.827 318.425 125.674 318.006 125.478C317.586 125.282 317.377 124.891 317.377 124.304C317.377 124.108 317.432 123.968 317.544 123.885C317.656 123.773 317.88 123.717 318.215 123.717C318.579 123.717 319.221 123.801 320.144 123.968C321.038 124.136 321.835 124.22 322.534 124.22C325.106 124.22 326.391 123.102 326.391 120.866C326.391 119.524 326.14 118.462 325.637 117.679C325.161 116.896 324.309 116.505 323.079 116.505C321.737 116.505 320.535 116.868 319.473 117.595C318.411 118.294 317.586 119.216 316.999 120.362C316.44 121.509 316.161 122.724 316.161 124.01C316.161 126.219 316.776 128.036 318.006 129.461C319.235 130.859 321.136 131.558 323.708 131.558C324.015 131.558 324.533 131.53 325.259 131.474C325.567 131.446 325.944 131.362 326.391 131.222C326.839 131.082 327.16 130.985 327.356 130.929C328.558 130.509 329.438 130.3 329.997 130.3C330.417 130.3 330.738 130.412 330.962 130.635C330.263 131.697 329.215 132.48 327.817 132.983C326.447 133.458 325.092 133.696 323.75 133.696Z" fill="black"/>
<path d="M336.339 133.696C335.193 131.46 334.284 128.832 333.613 125.813C332.97 122.794 332.649 120.181 332.649 117.972C332.649 117.106 332.845 116.547 333.236 116.295C333.46 116.156 333.627 116.086 333.739 116.086C333.935 116.086 334.075 116.239 334.158 116.547C334.27 116.854 334.382 117.413 334.494 118.224L334.704 119.734C335.011 118.224 335.598 117.036 336.465 116.17C337.359 115.275 338.449 114.828 339.735 114.828C341.161 114.828 342.223 115.107 342.922 115.666C343.621 116.197 343.97 117.092 343.97 118.35C342.572 117.679 341.3 117.344 340.154 117.344C339.064 117.344 338.128 117.637 337.345 118.224C336.562 118.811 336.017 119.678 335.71 120.824C335.458 121.606 335.333 122.347 335.333 123.046C335.333 123.801 335.43 124.513 335.626 125.184C335.85 125.827 336.185 126.624 336.632 127.574C337.052 128.553 337.373 129.391 337.597 130.09C337.848 130.789 337.988 131.544 338.016 132.354C338.016 132.829 337.848 133.179 337.513 133.403C337.177 133.598 336.786 133.696 336.339 133.696Z" fill="black"/>
<path d="M77.4833 159.068C85.0558 159.478 88.5998 159.062 91.6178 155.276" stroke="black" strokeWidth="3" strokeLinecap="round"/>
</svg>
