<svg width="46" height="46" viewBox="0 0 46 46" fill="none" xmlns="http://www.w3.org/2000/svg">
<path d="M14.7019 41.6231C10.2144 37.6555 7.98035 31.4581 9.44187 19.0444C11.4778 1.75143 30.1364 0.0719209 31.5716 19.0444C32.6789 33.6819 27.3462 39.0907 21.3094 42.2545C19.1671 43.3773 16.5139 43.2252 14.7019 41.6231Z" fill="#FFEBD9"/>
<path d="M19.8613 22.5361C14.1936 28.5211 13.8539 30.4137 18.9968 31.5748M25.9697 22.6235V23.1215M13.1307 22.6235V23.1215M9.44187 19.0444C7.98035 31.4581 10.2144 37.6555 14.7019 41.6231C16.5139 43.2252 19.1671 43.3773 21.3094 42.2545C27.3462 39.0907 32.6789 33.6819 31.5716 19.0444C30.1364 0.0719207 11.4778 1.75143 9.44187 19.0444Z" stroke="black" strokeWidth="2.2547" strokeLinecap="round" strokeLinejoin="round"/>
<path d="M30.356 15.0411C27.9954 10.3286 13.6247 10.6216 11.0365 15.3963C10.7749 15.8789 9.96053 16.1125 9.64349 15.6644C6.1869 10.7787 7.17689 7.27997 9.49819 2.73805C9.80003 2.14745 10.5421 1.94198 11.1218 2.26421C16.1251 5.04514 17.9001 5.07485 20.3274 3.79356C24.6981 1.4865 30.5201 2.81515 32.7781 7.21135C34.0384 9.66513 34.3199 12.1009 31.6539 15.3549C31.3203 15.762 30.5918 15.5118 30.356 15.0411Z" fill="#F49033" stroke="#F49033" strokeWidth="2.92741"/>
<path d="M36.5007 24.6211C40.0926 20.5498 34.7089 18.1403 32.3141 22.3651C31.5632 24.6485 31.4674 25.9998 31.9028 28.5446C33.2056 30.9986 40.3531 30.6187 36.4993 26.2965C36.0785 25.8245 36.0824 25.0953 36.5007 24.6211Z" fill="#FFEBD9" stroke="black" strokeWidth="2.2547" strokeLinecap="round" strokeLinejoin="round"/>
</svg>
