<?xml version="1.0" standalone="no"?>
<!DOCTYPE svg PUBLIC "-//W3C//DTD SVG 20010904//EN"
 "http://www.w3.org/TR/2001/REC-SVG-20010904/DTD/svg10.dtd">
<svg version="1.0" xmlns="http://www.w3.org/2000/svg"
 width="97.000000pt" height="97.000000pt" viewBox="0 0 97.000000 97.000000"
 preserveAspectRatio="xMidYMid meet">
<metadata>
Created by potrace 1.14, written by Peter Selinger 2001-2017
</metadata>
<g transform="translate(0.000000,97.000000) scale(0.100000,-0.100000)"
fill="#000000" stroke="none">
<path d="M194 945 c-34 -23 -68 -112 -68 -180 -1 -46 5 -73 24 -110 21 -40 24
-58 19 -90 -13 -75 -8 -257 10 -326 31 -124 112 -217 196 -227 112 -12 279
136 309 275 6 28 10 31 29 24 12 -4 28 -6 35 -5 6 1 18 2 26 3 18 1 35 47 35
92 -1 20 4 46 10 57 15 28 14 64 -3 87 -12 17 -58 24 -95 14 -22 -6 -24 48 -3
79 72 102 26 237 -97 286 -56 22 -141 19 -200 -7 -38 -17 -49 -18 -84 -7 -22
6 -57 20 -76 31 -43 23 -41 23 -67 4z"/>
</g>
</svg>
