<svg width="32" height="21" viewBox="0 0 32 21" fill="none" xmlns="http://www.w3.org/2000/svg">
<path d="M32 8.50954C32 9.67744 31.2666 10.4874 29.7997 10.9395C28.3329 11.3539 26.2761 11.5611 23.6294 11.5611C18.2757 11.5611 13.0579 11.1812 7.70134 11.6177C6.04316 11.7684 4.51254 11.8625 3.10946 11.9002C2.7587 11.9002 2.51954 11.7307 2.39198 11.3916C2.23255 11.0525 2.15283 10.6946 2.15283 10.3179C2.15283 9.86581 2.3601 9.48907 2.77464 9.18767C3.1573 8.88628 3.5559 8.73558 3.97044 8.73558C15.203 8.22796 17.1569 8.4697 29.9432 7.8314C30.6448 7.8314 31.139 7.8314 31.426 7.8314C31.9301 7.75696 32 7.86617 32 8.50954Z" fill="black"/>
<path d="M12.5177 17.3302C12.8981 18.1331 12.774 19.0208 12.1455 19.9935C11.7992 20.5293 11.7108 20.5999 11.5365 20.3914L10.9061 19.9605C5.81358 15.7126 4.8528 15.346 0.350529 11.6586C-0.0867389 11.3596 -0.146008 9.68088 0.350529 9.34143C4.8528 5.65399 5.81358 5.28743 10.9061 1.03954L11.5365 0.608578C11.7108 0.400066 11.7992 0.470706 12.1455 1.00652C12.774 1.97919 12.8981 2.86694 12.5177 3.66978C12.1171 4.44125 11.3542 5.21162 10.229 5.98087C7.95291 7.53688 5.53009 8.73701 3.48767 10.6573C5.53009 12.5777 7.95291 13.4631 10.229 15.0191C11.3542 15.7884 12.1171 16.5587 12.5177 17.3302Z" fill="black"/>
</svg>
