<svg width="17" height="17" viewBox="0 0 17 17" fill="none" xmlns="http://www.w3.org/2000/svg">
<path d="M5.32399 2.85228C5.32399 4.00695 4.38794 4.943 3.23326 4.943C2.07858 4.943 1.14253 4.00695 1.14253 2.85228C1.14253 1.6976 2.07858 0.761548 3.23326 0.761548C4.38794 0.761548 5.32399 1.6976 5.32399 2.85228ZM5.32399 13.3208C5.32399 14.4755 4.38794 15.4115 3.23326 15.4115C2.07858 15.4115 1.14253 14.4755 1.14253 13.3208C1.14253 12.1661 2.07858 11.2301 3.23326 11.2301C4.38794 11.2301 5.32399 12.1661 5.32399 13.3208ZM14.9151 7.24249C14.9151 8.39717 13.9791 9.33322 12.8244 9.33322C11.6697 9.33322 10.7337 8.39717 10.7337 7.24249C10.7337 6.08781 11.6697 5.15176 12.8244 5.15176C13.9791 5.15176 14.9151 6.08781 14.9151 7.24249Z" stroke="white" strokeWidth="1.35"/>
<path d="M5.64331 13.2598H10.2895C10.3838 13.2598 10.4686 13.2023 10.5035 13.1146L12.0726 9.16919" stroke="white" strokeWidth="1.35"/>
<path d="M3.2334 10.8146V5.35846" stroke="white" strokeWidth="1.35"/>
</svg>
