<svg width="17" height="17" viewBox="0 0 17 17" fill="none" xmlns="http://www.w3.org/2000/svg">
<path d="M11.3298 5.20178H10.5966M6.70898 5.20178H7.47982M7.47982 5.20178V8.06916C7.47982 8.12997 7.46651 8.19005 7.44083 8.24517L6.6561 9.92934M7.47982 5.20178H10.5966M10.5966 5.20178V8.07203C10.5966 8.13099 10.6091 8.18929 10.6333 8.24305L11.3922 9.92934M11.3922 9.92934L13.0374 13.5851C13.2856 14.1366 12.8822 14.7606 12.2774 14.7606H5.71286C5.1033 14.7606 4.69994 14.1276 4.95739 13.5751L6.6561 9.92934M11.3922 9.92934H6.6561" stroke="white" stroke-width="1.35" strokeLinecap="round" strokeLinejoin="round"/>
<ellipse cx="10.4305" cy="12.9639" rx="0.656363" ry="0.656871" stroke="white" stroke-width="0.416728"/>
<circle cx="9.68491" cy="3.28452" r="0.514746" stroke="white" stroke-width="0.416728"/>
<circle cx="8.24435" cy="1.82229" r="0.408902" stroke="white" stroke-width="0.416728"/>
<ellipse cx="8.1472" cy="11.7327" rx="0.573957" ry="0.574401" stroke="white" stroke-width="0.416728"/>
</svg>
