<svg width="17" height="16" viewBox="0 0 17 16" fill="none" xmlns="http://www.w3.org/2000/svg">
<path d="M10.7071 0.674866H5.29318C5.21863 0.674866 5.1582 0.735297 5.1582 0.809843V6.22377C5.1582 6.29832 5.21863 6.35875 5.29318 6.35875H10.7071C10.7817 6.35875 10.8421 6.29832 10.8421 6.22377V0.809844C10.8421 0.735297 10.7817 0.674866 10.7071 0.674866Z" stroke="white" strokeWidth="1.34978"/>
<path d="M6.39424 11.8293C6.39424 13.4185 5.10598 14.7067 3.51683 14.7067C1.92768 14.7067 0.639424 13.4185 0.639424 11.8293C0.639424 10.2402 1.92768 8.95192 3.51683 8.95192C5.10598 8.95192 6.39424 10.2402 6.39424 11.8293Z" stroke="white" strokeWidth="1.27885"/>
<path d="M9.0057 14.4679L12.3047 9.05062C12.3576 8.96376 12.484 8.96457 12.5358 9.0521L15.7406 14.4694C15.7937 14.5592 15.7289 14.6726 15.6246 14.6726H9.12081C9.01568 14.6726 8.95104 14.5577 9.0057 14.4679Z" stroke="white" strokeWidth="1.34698"/>
</svg>
